<svg width="512" height="512" xmlns="http://www.w3.org/2000/svg" viewBox="92 92 328 328">
  <!-- Canonical WELLKNEWS mark. Keep every public logo derivative generated from this file. -->
  <path
    d="M 138.542 107.296 C 131.312 118.330, 133.081 148.811, 142.584 176.929 C 150.729 201.031, 166.497 228.183, 181.059 243.181 L 189.135 251.500 185.224 245.500 C 162.898 211.242, 149.091 175.493, 147.345 147.430 C 146.717 137.321, 147.458 128, 148.890 128 C 150.823 128, 159.746 134.907, 166.369 141.530 C 173.826 148.987, 182.861 161.427, 189.227 173 C 200.675 193.814, 210.552 227.337, 211.251 247.754 L 211.500 255.009 203.689 258.427 C 182.415 267.736, 166.859 283.737, 159.692 303.683 C 158.345 307.432, 156.926 312.525, 156.538 315 C 155.893 319.123, 156.259 318.662, 160.903 309.500 C 170.647 290.278, 186.237 275.371, 207.500 264.945 C 239.868 249.072, 271.318 249.131, 303.366 265.122 C 324.525 275.681, 340.114 290.945, 349.637 310.427 C 354.414 320.203, 354.976 319.979, 352.129 309.432 C 347.753 293.225, 339.209 280.315, 325.828 269.693 C 320.350 265.344, 304.993 257.008, 300.127 255.741 C 297.833 255.143, 297.777 254.897, 298.438 248.311 C 301.591 216.898, 312.921 183.896, 328.712 160.124 C 338.129 145.948, 359.148 125.821, 361.788 128.453 C 363.343 130.003, 363.154 149.152, 361.484 159.229 C 357.438 183.653, 344.422 215.051, 327.384 241.491 L 320.934 251.500 329.224 242.960 C 344.510 227.213, 359.078 202.038, 367.408 176.971 C 373.854 157.574, 375.404 149.009, 375.456 132.500 C 375.505 117.003, 374.942 113.055, 371.999 108.229 L 370.004 104.958 365.752 107.101 C 354.012 113.018, 336.878 128.881, 326.572 143.375 C 310.244 166.335, 298.393 195.574, 294.961 221.365 C 294.339 226.043, 293.980 235.294, 294.165 241.924 C 294.452 252.264, 294.287 253.919, 293 253.558 C 284.061 251.051, 277.371 250.514, 255 250.507 C 232.535 250.501, 223.746 251.241, 217.399 253.677 C 216.567 253.996, 216.102 249.037, 215.725 235.810 C 215.326 221.829, 214.701 215.490, 213.078 209 C 202.296 165.864, 179.721 130.075, 151.681 111.664 C 141.229 104.801, 140.365 104.513, 138.542 107.296 M 175 258.673 C 143.894 277.019, 128.012 313.191, 136.556 346.228 C 141.955 367.106, 156.217 385.058, 176.500 396.507 C 182.344 399.805, 181.748 399.067, 173.345 392.595 C 141.800 368.299, 133.023 321.187, 153.306 285.021 C 157.353 277.804, 172.032 261.576, 178 257.720 C 182.051 255.103, 179.888 255.790, 175 258.673 M 333.726 258.917 C 343.812 266.222, 355.282 280.615, 360.613 292.652 C 376.051 327.511, 365.162 371.132, 335.413 393.604 C 328.637 398.722, 327.562 399.828, 331.250 397.885 C 356.265 384.709, 371.755 362.686, 375.216 335.378 C 376.176 327.808, 376.108 324.658, 374.819 316.878 C 370.934 293.429, 357.850 273.272, 338.311 260.632 C 330.326 255.467, 327.509 254.413, 333.726 258.917 M 192.326 300.045 C 169.003 304.656, 154.565 330.357, 162.522 353.099 C 167.851 368.329, 184.328 380, 200.500 380 C 224.763 380, 244.295 357.493, 240.201 334.253 C 236.095 310.940, 214.664 295.628, 192.326 300.045 M 302.176 300.070 C 291.576 302.156, 279.869 310.365, 274.670 319.356 C 267.782 331.268, 267.076 345.619, 272.807 357.260 C 276.778 365.326, 283.876 372.098, 292.777 376.315 C 298.874 379.203, 300.389 379.500, 309.052 379.500 C 318.081 379.500, 319.021 379.294, 326.223 375.734 C 335.061 371.366, 341.872 364.537, 345.903 356 C 348.208 351.118, 348.500 349.265, 348.500 339.500 C 348.500 329.659, 348.218 327.898, 345.820 322.782 C 340.576 311.593, 329.266 302.633, 317.201 300.109 C 311.216 298.857, 308.380 298.849, 302.176 300.070 M 198.801 309.028 C 188.488 310.766, 179.078 318.339, 174.135 328.880 C 171.932 333.578, 171.501 335.894, 171.509 343 C 171.516 350.332, 171.903 352.256, 174.325 357 C 181.954 371.948, 198.533 379.894, 213.199 375.631 C 229.226 370.971, 240.130 355.645, 238.803 339.644 C 238.194 332.295, 233.120 322.133, 227.708 317.420 C 219.680 310.428, 208.959 307.316, 198.801 309.028 M 298.932 308.988 C 288.317 310.834, 278.201 318.900, 273.453 329.303 C 267.184 343.039, 272.323 361.736, 284.720 370.297 C 291.538 375.006, 295.972 376.376, 304.500 376.411 C 311.071 376.438, 313.509 375.976, 318.148 373.824 C 335.111 365.956, 342.959 345.799, 335.516 329.214 C 329.076 314.864, 313.777 306.406, 298.932 308.988 M 303.129 330.965 C 301.548 336.242, 297.240 340.802, 293.044 341.641 C 288.675 342.515, 288.437 343.672, 292.470 344.428 C 297.180 345.312, 301.759 350.159, 303.167 355.750 L 304.321 360.333 305.506 355.666 C 307.220 348.916, 310.793 345.445, 317.500 344.012 L 320.500 343.371 316.500 342.062 C 310.163 339.989, 306.333 335.805, 305.045 329.548 C 304.442 326.618, 304.428 326.629, 303.129 330.965 M 204 329.481 C 204 332.286, 200.263 338.523, 197.841 339.762 C 196.553 340.420, 194.150 341.455, 192.500 342.061 L 189.500 343.164 193.417 344.521 C 198.393 346.246, 201.754 349.607, 203.479 354.583 L 204.836 358.500 205.918 355.685 C 206.513 354.137, 207 352.484, 207 352.012 C 207 349.994, 213.348 345.025, 216.738 344.389 L 220.399 343.703 215.226 341.420 C 210.060 339.140, 206.012 334.483, 206.004 330.809 C 206.002 329.879, 205.550 328.840, 205 328.500 C 204.450 328.160, 204 328.601, 204 329.481"
    fill="#ffffff"
    fill-rule="evenodd"
  />
</svg>
